# xmcd CD database file
#
# Track frame offsets:
#	150
#	3467
#	15897
#	27142
#	41822
#	52987
#	70164
#	83324
#	99546
#	111401
#	127533
#	143085
#	156017
#	167134
#	181596
#	195546
#	207591
#	220328
#	232130
#	242772
#	256464
#	265506
#	277556
#
# Disc length: 3911 seconds
#
# Revision: 0
# Processed by: cddbd v1.5.2PL0 Copyright (c) Steve Scherf et al.
# Submitted via: CDex 1.70beta2
#
DISCID=260f4517
DTITLE=Various Artist - Stereoplay Special CD 42 - Swing
DYEAR=1989
DGENRE=Jazz
TTITLE0=Let's Dance /Benny Goodman Orchestra
TTITLE1=I've Got My Love To Keep Me Warm - Les Brown Orchestra
TTITLE2=Stompin' At The Savoy - June Christy And Orchestra
TTITLE3=Begin The Beguine - Artie Shaw Orchestra
TTITLE4=It's Sandman! - Lambert, Hendricks and Ross
TTITLE5=April in Paris - Count Basie Orchestra
TTITLE6=Route 66 - Nat "King" Cole And His Trio
TTITLE7=I'm Getting Sentimental Over You - Tommy Dorsey Orchestra
TTITLE8=I Let A Song Go Out Of My Heart - Rosemay Clooney And Duke Ellington
TTITLE9=Drum Boogie - Gene Krupa Orchestra
TTITLE10=Up A Lazy River - The Mills Brothers And Count Basie
TTITLE11=Take The "A" Train - Duke Ellington Orchestra
TTITLE12=Kansas City - Peggy Lee And Orchestra
TTITLE13=Woodchopper's Ball - Woody Herman Orchestra
TTITLE14=I'm Beginning To See The Light - Joe Williams And Count Basie
TTITLE15=Sugar Blues - Clyde McCoy And Orchestra
TTITLE16=Rag Mop /Lionel Hampton Orchestra
TTITLE17=Jersey Bounce - Les and Larry Elgart Orchestra
TTITLE18=Taking A Chance On Love /Anita O'Day And Oscar Peterson
TTITLE19=Don't Be That Way /Benny Goodman Orchestra
TTITLE20=Mister Five By Five - Jimmy Rushing And Orchestra
TTITLE21=For Dancers Only /Jimmy Lunceford Orchestra
TTITLE22=In THe Mood - Glenn Miller Orchestra
EXTD=YEAR: 1989
EXTT0=
EXTT1=
EXTT2=
EXTT3=
EXTT4=
EXTT5=
EXTT6=
EXTT7=
EXTT8=
EXTT9=
EXTT10=
EXTT11=
EXTT12=
EXTT13=
EXTT14=
EXTT15=
EXTT16=
EXTT17=
EXTT18=
EXTT19=
EXTT20=
EXTT21=
EXTT22=
PLAYORDER=
